<svg width="106" height="107" viewBox="0 0 106 107" fill="none" xmlns="http://www.w3.org/2000/svg">
<path d="M88.333 31.2085H17.6663C12.7878 31.2085 8.83301 35.2006 8.83301 40.1252V84.7085C8.83301 89.633 12.7878 93.6252 17.6663 93.6252H88.333C93.2115 93.6252 97.1663 89.633 97.1663 84.7085V40.1252C97.1663 35.2006 93.2115 31.2085 88.333 31.2085Z" stroke="#37393F" stroke-width="5" stroke-linecap="round" stroke-linejoin="round"/>
<path d="M70.6663 93.625V22.2917C70.6663 19.9268 69.7357 17.6588 68.0791 15.9866C66.4225 14.3144 64.1758 13.375 61.833 13.375H44.1663C41.8236 13.375 39.5768 14.3144 37.9202 15.9866C36.2637 17.6588 35.333 19.9268 35.333 22.2917V93.625" stroke="#37393F" stroke-width="5" stroke-linecap="round" stroke-linejoin="round"/>
</svg>
