<svg width="18" height="18" viewBox="0 0 18 18" fill="none" xmlns="http://www.w3.org/2000/svg">
<path d="M8.94618 17.3045C13.4235 17.3045 17.0531 13.6749 17.0531 9.19759C17.0531 4.72025 13.4235 1.09065 8.94618 1.09065C4.46883 1.09065 0.839233 4.72025 0.839233 9.19759C0.839233 13.6749 4.46883 17.3045 8.94618 17.3045Z" stroke="black" stroke-width="1.29342" stroke-linecap="round" stroke-linejoin="round"/>
<path d="M4.83035 10.4448C5.45396 12.6898 7.94841 14.0618 10.1934 13.4381C11.5654 12.9393 12.6879 11.8168 13.062 10.4448" stroke="black" stroke-width="1.29342" stroke-linecap="round" stroke-linejoin="round"/>
<path d="M6.20226 7.20203C6.0645 7.20203 5.95282 7.09035 5.95282 6.95258C5.95282 6.81482 6.0645 6.70314 6.20226 6.70314" stroke="black" stroke-width="0.268127" stroke-linecap="round" stroke-linejoin="round"/>
<path d="M6.20229 7.20203C6.34005 7.20203 6.45173 7.09035 6.45173 6.95258C6.45173 6.81482 6.34005 6.70314 6.20229 6.70314" stroke="black" stroke-width="1.29342" stroke-linecap="round" stroke-linejoin="round"/>
<path d="M11.6901 7.20203C11.5523 7.20203 11.4406 7.09035 11.4406 6.95258C11.4406 6.81482 11.5523 6.70314 11.6901 6.70314" stroke="black" stroke-width="0.268127" stroke-linecap="round" stroke-linejoin="round"/>
<path d="M11.6901 7.20203C11.8278 7.20203 11.9395 7.09035 11.9395 6.95258C11.9395 6.81482 11.8278 6.70314 11.6901 6.70314" stroke="black" stroke-width="1.29342" stroke-linecap="round" stroke-linejoin="round"/>
</svg>
