<svg width="12" height="9" viewBox="0 0 12 9" fill="none" xmlns="http://www.w3.org/2000/svg">
<path d="M11.9437 2.71892C11.908 2.62682 11.8545 2.54269 11.7862 2.47134L9.53547 0.220638C9.46552 0.150687 9.38248 0.0951991 9.29108 0.057342C9.19969 0.019485 9.10173 0 9.00281 0C8.80302 0 8.61141 0.0793657 8.47014 0.220638C8.40019 0.290588 8.3447 0.373632 8.30684 0.465027C8.26899 0.556422 8.2495 0.654378 8.2495 0.753304C8.2495 0.953092 8.32887 1.1447 8.47014 1.28597L9.44544 2.25377H2.2507C1.65378 2.25377 1.0813 2.4909 0.659215 2.91299C0.237127 3.33507 0 3.90755 0 4.50447V7.50541C0 7.70438 0.0790424 7.89521 0.219739 8.0359C0.360435 8.1766 0.551259 8.25564 0.750234 8.25564C0.949208 8.25564 1.14003 8.1766 1.28073 8.0359C1.42143 7.89521 1.50047 7.70438 1.50047 7.50541V4.50447C1.50047 4.3055 1.57951 4.11467 1.72021 3.97398C1.8609 3.83328 2.05173 3.75424 2.2507 3.75424H9.44544L8.47014 4.72204C8.39982 4.79178 8.34401 4.87476 8.30592 4.96618C8.26783 5.05761 8.24822 5.15567 8.24822 5.25471C8.24822 5.35375 8.26783 5.45181 8.30592 5.54323C8.34401 5.63465 8.39982 5.71763 8.47014 5.78737C8.53988 5.85769 8.62286 5.9135 8.71428 5.95159C8.80571 5.98968 8.90377 6.00929 9.00281 6.00929C9.10185 6.00929 9.19991 5.98968 9.29133 5.95159C9.38275 5.9135 9.46573 5.85769 9.53547 5.78737L11.7862 3.53667C11.8545 3.46532 11.908 3.38119 11.9437 3.28909C12.0188 3.10644 12.0188 2.90157 11.9437 2.71892Z" fill="#F8F8F8"/>
</svg>
