<svg width="35" height="40" viewBox="0 0 19 18" fill="#4D96DA" xmlns="http://www.w3.org/2000/svg">
<path d="M16.4275 15.3014L16.6862 14.9548C17.1972 14.2698 17.5479 13.4788 17.7124 12.6401C17.8768 11.8015 17.8509 10.9367 17.6364 10.1094C17.422 9.28213 17.0245 8.51358 16.4733 7.86045C15.9222 7.20733 15.2314 6.68631 14.452 6.33584L14.2098 6.22697L14.1644 5.96544C13.9928 4.97796 13.5983 4.04259 13.011 3.23041C12.4237 2.41823 11.659 1.7506 10.775 1.27826C9.89097 0.805909 8.91093 0.541272 7.90933 0.504452C6.90772 0.467632 5.9109 0.659599 4.9946 1.06577C4.0783 1.47193 3.26664 2.08161 2.62129 2.84848C1.97593 3.61535 1.51386 4.51923 1.27019 5.49144C1.02652 6.46365 1.00765 7.47861 1.21503 8.45921C1.4224 9.4398 1.85056 10.3602 2.46697 11.1505L2.73979 11.5003L2.42499 11.8129L1.19449 13.0345C1.14159 13.0887 1.10574 13.1572 1.09141 13.2316C1.07696 13.3066 1.08505 13.3843 1.11467 13.4547L1.11628 13.4586L1.11626 13.4586C1.14528 13.5292 1.19457 13.5897 1.2579 13.6324C1.32094 13.6748 1.3951 13.6978 1.47111 13.6984H6.51579H6.83202L6.96755 13.9841C7.4296 14.9582 8.15808 15.7815 9.06866 16.3588C9.97899 16.9358 11.0341 17.2434 12.1119 17.2458C12.1122 17.2458 12.1125 17.2458 12.1128 17.2458L17.4312 17.2458M16.4275 15.3014L17.4328 17.7458M16.4275 15.3014L16.7334 15.6073L17.7066 16.5804M16.4275 15.3014L17.7066 16.5804M17.4312 17.2458H17.4328V17.7458M17.4312 17.2458C17.4309 17.2458 17.4306 17.2458 17.4303 17.2458L17.4328 17.7458M17.4312 17.2458C17.5073 17.2452 17.5815 17.2222 17.6446 17.1797C17.7079 17.137 17.7572 17.0766 17.7862 17.0059L17.7878 17.0021C17.8174 16.9317 17.8255 16.854 17.8111 16.779C17.7967 16.7043 17.7607 16.6356 17.7075 16.5814L17.7089 16.5828L18.0625 16.2293M17.4328 17.7458C17.6079 17.7449 17.7788 17.6922 17.924 17.5944C18.0692 17.4965 18.1822 17.3579 18.2487 17.1959C18.3166 17.0344 18.3352 16.8564 18.302 16.6844C18.2689 16.5123 18.1855 16.354 18.0625 16.2293M18.0625 16.2293L17.7066 16.5804M18.0625 16.2293L17.0869 15.2537M17.0869 15.2537C17.6427 14.5087 18.0241 13.6485 18.203 12.7364C18.3819 11.8243 18.3537 10.8837 18.1204 9.98392C17.8872 9.0842 17.4549 8.24832 16.8555 7.53799C16.256 6.82765 15.5047 6.26099 14.657 5.87982C14.4724 4.81747 14.048 3.81119 13.4162 2.93743C12.7843 2.06367 11.9616 1.34542 11.0106 0.837261C10.0596 0.329102 9.00524 0.0444007 7.92769 0.00478935C6.85015 -0.034822 5.77775 0.171699 4.79198 0.60866C3.80621 1.04562 2.93301 1.70153 2.23873 2.52654C1.54444 3.35155 1.04734 4.32396 0.785192 5.36988C0.523044 6.4158 0.502748 7.50772 0.725847 8.56266C0.948945 9.6176 1.40957 10.6078 2.07271 11.4581L17.0869 15.2537ZM17.0869 15.2537L17.7066 16.5804M3.91735 10.8639L3.56575 11.2194C3.02147 10.6811 2.58998 10.0396 2.29649 9.33262C2.00314 8.62591 1.85357 7.86782 1.8565 7.10266C1.85677 5.55918 2.47003 4.07898 3.56145 2.98755C4.65275 1.89625 6.13276 1.28301 7.67605 1.28261C8.88122 1.27568 10.0583 1.64644 11.042 2.34284C12.026 3.03952 12.767 4.02708 13.1608 5.16669L13.39 5.82998H12.6882H12.6871H12.6859H12.6848H12.6836H12.6825H12.6814H12.6802H12.6791H12.6779H12.6768H12.6756H12.6745H12.6734H12.6722H12.6711H12.6699H12.6688H12.6677H12.6665H12.6654H12.6642H12.6631H12.662H12.6608H12.6597H12.6586H12.6574H12.6563H12.6551H12.654H12.6529H12.6517H12.6506H12.6495H12.6483H12.6472H12.646H12.6449H12.6438H12.6426H12.6415H12.6404H12.6392H12.6381H12.637H12.6358H12.6347H12.6336H12.6324H12.6313H12.6302H12.629H12.6279H12.6268H12.6256H12.6245H12.6234H12.6222H12.6211H12.62H12.6188H12.6177H12.6166H12.6154H12.6143H12.6132H12.612H12.6109H12.6098H12.6086H12.6075H12.6064H12.6052H12.6041H12.603H12.6019H12.6007H12.5996H12.5985H12.5973H12.5962H12.5951H12.594H12.5928H12.5917H12.5906H12.5894H12.5883H12.5872H12.5861H12.5849H12.5838H12.5827H12.5815H12.5804H12.5793H12.5782H12.577H12.5759H12.5748H12.5736H12.5725H12.5714H12.5703H12.5691H12.568H12.5669H12.5658H12.5646H12.5635H12.5624H12.5613H12.5601H12.559H12.5579H12.5568H12.5556H12.5545H12.5534H12.5523H12.5511H12.55H12.5489H12.5478H12.5466H12.5455H12.5444H12.5433H12.5421H12.541H12.5399H12.5388H12.5377H12.5365H12.5354H12.5343H12.5332H12.532H12.5309H12.5298H12.5287H12.5275H12.5264H12.5253H12.5242H12.5231H12.5219H12.5208H12.5197H12.5186H12.5174H12.5163H12.5152H12.5141H12.513H12.5118H12.5107H12.5096H12.5085H12.5074H12.5062H12.5051H12.504H12.5029H12.5018H12.5006H12.4995H12.4984H12.4973H12.4962H12.495H12.4939H12.4928H12.4917H12.4906H12.4894H12.4883H12.4872H12.4861H12.485H12.4838H12.4827H12.4816H12.4805H12.4794H12.4782H12.4771H12.476H12.4749H12.4738H12.4726H12.4715H12.4704H12.4693H12.4682H12.467H12.4659H12.4648H12.4637H12.4626H12.4615H12.4603H12.4592H12.4581H12.457H12.4559H12.4547H12.4536H12.4525H12.4514H12.4503H12.4492H12.448H12.4469H12.4458H12.4447H12.4436H12.4424H12.4413H12.4402H12.4391H12.438H12.4369H12.4357H12.4346H12.4335H12.4324H12.4313H12.4302H12.429H12.4279H12.4268H12.4257H12.4246H12.4235H12.4223H12.4212H12.4201H12.419H12.4179H12.4167H12.4156H12.4145H12.4134H12.4123H12.4112H12.41H12.4089H12.4078H12.4067H12.4056H12.4045H12.4033H12.4022H12.4011H12.4H12.3989H12.3978H12.3966H12.3955H12.3944H12.3933H12.3922H12.3911H12.3899H12.3888H12.3877H12.3866H12.3855H12.3843H12.3832H12.3821H12.381H12.3799H12.3788H12.3776H12.3765H12.3754H12.3743H12.3732H12.3721H12.3709H12.3698H12.3687H12.3676H12.3665H12.3654H12.3642H12.3631H12.362H12.3609H12.3598H12.3586H12.3575H12.3564H12.3553H12.3542H12.3531H12.3519H12.3508H12.3497H12.3486H12.3475H12.3463H12.3452H12.3441H12.343H12.3419H12.3408H12.3396H12.3385H12.3374H12.3363H12.3352H12.334H12.3329H12.3318H12.3307H12.3296H12.3285H12.3273H12.3262H12.3251H12.324H12.3229H12.3217H12.3206H12.3195H12.3184H12.3173H12.3161H12.315H12.3139H12.3128H12.3117H12.3105H12.3094H12.3083H12.3072H12.3061H12.3049H12.3038H12.3027H12.3016H12.3005H12.2993H12.2982H12.2971H12.296H12.2949H12.2937H12.2926H12.2915H12.2904H12.2893H12.2881H12.287H12.2859H12.2848H12.2836H12.2825H12.2814H12.2803H12.2792H12.278H12.2769H12.2758H12.2747H12.2736H12.2724H12.2713H12.2702H12.2691H12.2679H12.2668H12.2657H12.2646H12.2634H12.2623H12.2612H12.2601H12.259H12.2578H12.2567H12.2556H12.2545H12.2533H12.2522H12.2511H12.25H12.2488H12.2477H12.2466H12.2455H12.2443H12.2432H12.2421H12.241H12.2398H12.2387H12.2376H12.2365H12.2353H12.2342H12.2331H12.232H12.2308H12.2297H12.2286H12.2275H12.2263H12.2252H12.2241H12.2229H12.2218H12.2207H12.2196H12.2184H12.2173H12.2162H12.2151H12.2139H12.2128H12.2117H12.2105H12.2094H12.2083H12.2072H12.206H12.2049H12.2038H12.2026H12.2015H12.2004H12.1992H12.1981H12.197H12.1959H12.1947H12.1936H12.1925H12.1913H12.1902H12.1891H12.1879H12.1868H12.1857H12.1845H12.1834H12.1823H12.1812H12.18H12.1789H12.1778H12.1766H12.1755H12.1744H12.1732H12.1721H12.171H12.1698H12.1687H12.1676H12.1664H12.1653H12.1642H12.163H12.1619H12.1607H12.1596H12.1585H12.1573H12.1562H12.1551H12.1539H12.1528H12.1517H12.1505H12.1494H12.1482H12.1471H12.146H12.1448H12.1437H12.1426H12.1414H12.1403H12.1391H12.138H12.1369H12.1357H12.1346H12.1334H12.1323H12.1312H12.13H12.1289H12.1278H12.1266H12.1255H12.1243H12.1232H12.122H12.1209H12.1198H12.1186H12.1175H12.1163H12.1152H12.1141H12.1129H12.1118C10.5979 5.82998 9.14611 6.43134 8.07568 7.50178C7.00548 8.57198 6.40414 10.0234 6.40387 11.5369C6.40504 11.8082 6.42674 12.0791 6.46878 12.3472L6.55934 12.9247H5.97482H3.60695H2.37466L3.25856 12.0661L3.56673 11.7667C3.60229 11.731 3.63055 11.6888 3.64992 11.6423C3.66956 11.5952 3.67967 11.5446 3.67967 11.4935C3.67967 11.4425 3.66956 11.3919 3.64992 11.3448C3.63028 11.2976 3.6015 11.2548 3.56524 11.2189L3.91735 10.8639ZM3.91735 10.8639C3.42032 10.3723 3.02629 9.78657 2.75829 9.14093C2.49029 8.4953 2.3537 7.80271 2.3565 7.10366L3.91735 10.8639ZM15.6047 15.6185L15.6048 15.6185L15.6012 15.615C15.5646 15.5792 15.5356 15.5365 15.5156 15.4893C15.4963 15.4436 15.486 15.3946 15.4852 15.345C15.4878 15.2446 15.5293 15.1491 15.6011 15.0788L15.6011 15.0788L15.6043 15.0756C16.4124 14.2695 16.9161 13.2082 17.0295 12.0724C17.1429 10.9366 16.859 9.79659 16.2261 8.84664C15.5933 7.89668 14.6507 7.19551 13.5589 6.86257C12.4671 6.52963 11.2936 6.58553 10.2384 7.02073C9.18317 7.45594 8.31147 8.24353 7.7718 9.24934C7.23213 10.2551 7.05787 11.4169 7.2787 12.5368C7.49953 13.6567 8.1018 14.6654 8.9829 15.391C9.864 16.1167 10.9694 16.5144 12.1109 16.5164H12.1118H15.2955H16.5026L15.6491 15.6629L15.6047 15.6185Z" fill="white" stroke="#4D96DA"/>
</svg>
