<svg width="13" height="16" viewBox="0 0 13 16" fill="none" xmlns="http://www.w3.org/2000/svg">
<path d="M1 8.99967V2.66634C1 2.31272 1.14048 1.97358 1.39052 1.72353C1.64057 1.47348 1.97971 1.33301 2.33333 1.33301H8L11.6667 4.99967V13.333C11.6667 13.6866 11.5262 14.0258 11.2761 14.2758C11.0261 14.5259 10.687 14.6663 10.3333 14.6663H6.66667" stroke="#F8F8F8" stroke-linecap="round" stroke-linejoin="round"/>
<path d="M7.66667 1.33301V5.33301H11.6667M5.28 8.40634C5.41001 8.27633 5.56435 8.1732 5.73422 8.10284C5.90408 8.03248 6.08614 7.99627 6.27 7.99627C6.45386 7.99627 6.63592 8.03248 6.80578 8.10284C6.97565 8.1732 7.12999 8.27633 7.26 8.40634C7.39001 8.53635 7.49314 8.69069 7.5635 8.86056C7.63386 9.03042 7.67007 9.21248 7.67007 9.39634C7.67007 9.5802 7.63386 9.76226 7.5635 9.93212C7.49314 10.102 7.39001 10.2563 7.26 10.3863L3.63333 13.9997L1 14.6663L1.66 12.033L5.28 8.40634Z" stroke="#F8F8F8" stroke-linecap="round" stroke-linejoin="round"/>
</svg>
