<svg width="17" height="17" viewBox="0 0 17 17" fill="none" xmlns="http://www.w3.org/2000/svg">
<path d="M1.59375 11.1562L5.24804 7.50196C5.39604 7.35396 5.57173 7.23657 5.76509 7.15647C5.95846 7.07638 6.1657 7.03515 6.375 7.03515C6.5843 7.03515 6.79154 7.07638 6.98491 7.15647C7.17827 7.23657 7.35396 7.35396 7.50196 7.50196L11.1562 11.1562M10.0937 10.0937L11.0918 9.09571C11.2398 8.94771 11.4155 8.83032 11.6088 8.75022C11.8022 8.67013 12.0095 8.6289 12.2187 8.6289C12.428 8.6289 12.6353 8.67013 12.8287 8.75022C13.022 8.83032 13.1977 8.94771 13.3457 9.09571L15.4062 11.1562M2.65625 13.8125H14.3437C14.6255 13.8125 14.8958 13.7006 15.0951 13.5013C15.2943 13.302 15.4062 13.0318 15.4062 12.75V4.25C15.4062 3.96821 15.2943 3.69796 15.0951 3.4987C14.8958 3.29944 14.6255 3.1875 14.3437 3.1875H2.65625C2.37446 3.1875 2.10421 3.29944 1.90495 3.4987C1.70569 3.69796 1.59375 3.96821 1.59375 4.25V12.75C1.59375 13.0318 1.70569 13.302 1.90495 13.5013C2.10421 13.7006 2.37446 13.8125 2.65625 13.8125ZM10.0937 5.84375H10.0994V5.84942H10.0937V5.84375ZM10.3594 5.84375C10.3594 5.9142 10.3314 5.98176 10.2816 6.03158C10.2318 6.08139 10.1642 6.10937 10.0937 6.10937C10.0233 6.10937 9.95574 6.08139 9.90592 6.03158C9.85611 5.98176 9.82812 5.9142 9.82812 5.84375C9.82812 5.7733 9.85611 5.70574 9.90592 5.65592C9.95574 5.60611 10.0233 5.57812 10.0937 5.57812C10.1642 5.57812 10.2318 5.60611 10.2816 5.65592C10.3314 5.70574 10.3594 5.7733 10.3594 5.84375Z" stroke="#F8F8F8" stroke-width="1.5" stroke-linecap="round" stroke-linejoin="round"/>
</svg>
