<svg width="17" height="17" viewBox="0 0 17 17" fill="none" xmlns="http://www.w3.org/2000/svg">
<path d="M13.8125 10.0937V8.23437C13.8125 7.60034 13.5606 6.99228 13.1123 6.54395C12.664 6.09562 12.0559 5.84375 11.4219 5.84375H10.3594C10.148 5.84375 9.94534 5.75979 9.7959 5.61035C9.64646 5.46091 9.5625 5.25822 9.5625 5.04687V3.98437C9.5625 3.35034 9.31063 2.74228 8.8623 2.29395C8.41397 1.84562 7.80591 1.59375 7.17187 1.59375H5.84375M10.625 10.0937L8.5 7.96875M8.5 7.96875L6.375 10.0937M8.5 7.96875V12.2187M7.4375 1.59375H3.98437C3.5445 1.59375 3.1875 1.95075 3.1875 2.39062V14.6094C3.1875 15.0492 3.5445 15.4062 3.98437 15.4062H13.0156C13.4555 15.4062 13.8125 15.0492 13.8125 14.6094V7.96875C13.8125 6.27799 13.1408 4.65649 11.9453 3.46094C10.7498 2.2654 9.12825 1.59375 7.4375 1.59375Z" stroke="#F8F8F8" stroke-width="1.5" stroke-linecap="round" stroke-linejoin="round"/>
</svg>
