<svg width="17" height="19" viewBox="0 0 17 19" fill="none" xmlns="http://www.w3.org/2000/svg">
<path d="M14.7615 10.4039L9.17793 16.1093C8.44593 16.7729 7.49304 17.1261 6.51418 17.0967C5.53531 17.0673 4.60444 16.6575 3.91198 15.9511C3.21951 15.2447 2.81779 14.2951 2.78897 13.2965C2.76016 12.2979 3.10643 11.3258 3.75696 10.5791L10.9849 3.2055C11.4165 2.78732 11.9889 2.55416 12.5841 2.55416C13.1793 2.55416 13.7518 2.78732 14.1833 3.2055C14.6037 3.64016 14.8395 4.22625 14.8395 4.8369C14.8395 5.44755 14.6037 6.03364 14.1833 6.4683L7.94918 12.8188C7.88748 12.8866 7.8133 12.9413 7.73087 12.9798C7.64844 13.0184 7.55938 13.04 7.46877 13.0434C7.37817 13.0468 7.28778 13.032 7.20279 12.9998C7.11779 12.9676 7.03985 12.9186 6.9734 12.8557C6.90696 12.7927 6.85332 12.717 6.81554 12.633C6.77777 12.5489 6.7566 12.458 6.75324 12.3656C6.74989 12.2731 6.76441 12.1809 6.79599 12.0942C6.82756 12.0075 6.87557 11.928 6.93726 11.8602L11.5722 7.14114C11.7423 6.96758 11.8379 6.73219 11.8379 6.48674C11.8379 6.24129 11.7423 6.00589 11.5722 5.83233C11.4021 5.65877 11.1713 5.56127 10.9307 5.56127C10.6901 5.56127 10.4594 5.65877 10.2892 5.83233L5.6543 10.5699C5.42238 10.8046 5.2383 11.0839 5.11268 11.3916C4.98707 11.6992 4.92239 12.0293 4.92239 12.3626C4.92239 12.6959 4.98707 13.0259 5.11268 13.3335C5.2383 13.6412 5.42238 13.9205 5.6543 14.1553C6.12807 14.6156 6.75729 14.8724 7.4116 14.8724C8.0659 14.8724 8.69513 14.6156 9.1689 14.1553L15.394 7.79555C16.1121 7.00929 16.5031 5.96936 16.4845 4.89484C16.466 3.82032 16.0393 2.79511 15.2943 2.03519C14.5494 1.27527 13.5445 0.839978 12.4912 0.82102C11.4379 0.802061 10.4185 1.20092 9.64775 1.93355L2.41979 9.30713C1.4451 10.4084 0.92453 11.8509 0.966547 13.334C1.00856 14.8171 1.60993 16.2265 2.64534 17.2685C3.68075 18.3105 5.07035 18.9048 6.52462 18.9275C7.97889 18.9502 9.38568 18.3996 10.4519 17.3904L16.0445 11.6943C16.1287 11.6084 16.1956 11.5064 16.2411 11.3941C16.2867 11.2818 16.3102 11.1615 16.3102 11.0399C16.3102 10.9184 16.2867 10.798 16.2411 10.6858C16.1956 10.5735 16.1287 10.4715 16.0445 10.3855C15.9603 10.2996 15.8602 10.2314 15.7502 10.1849C15.6401 10.1384 15.5221 10.1144 15.403 10.1144C15.2839 10.1144 15.1659 10.1384 15.0558 10.1849C14.9458 10.2314 14.8458 10.2996 14.7615 10.3855V10.4039Z" fill="black"/>
</svg>
