<svg width="27" height="26" viewBox="0 0 27 26" fill="none" xmlns="http://www.w3.org/2000/svg">
<g filter="url(#filter0_d_1_24)">
<path d="M21.84 9.92214C21.7114 9.81586 21.5556 9.74783 21.3902 9.72579C21.2249 9.70374 21.0567 9.72857 20.9048 9.79744C19.9629 10.2284 18.9389 10.4503 17.9031 10.4477C15.9871 10.4453 14.1497 9.68561 12.7915 8.33411C11.4333 6.98262 10.6645 5.14897 10.6528 3.23298C10.6569 2.6325 10.7316 2.03458 10.8755 1.45158C10.906 1.29618 10.8945 1.13546 10.8423 0.985967C10.79 0.836473 10.6989 0.703613 10.5782 0.601075C10.4575 0.498538 10.3117 0.430031 10.1557 0.402612C9.99972 0.375193 9.83925 0.389855 9.69083 0.445085C8.29451 1.07295 7.0807 2.04546 6.16345 3.27126C5.24619 4.49707 4.6556 5.93592 4.44715 7.45266C4.23869 8.9694 4.41923 10.5142 4.97179 11.942C5.52435 13.3698 6.43079 14.6337 7.60597 15.615C8.78115 16.5963 10.1865 17.2627 11.69 17.5517C13.1934 17.8407 14.7457 17.7427 16.2009 17.2671C17.6561 16.7914 18.9666 15.9536 20.0091 14.8324C21.0516 13.7111 21.7919 12.3433 22.1606 10.8574C22.2055 10.6872 22.1991 10.5076 22.142 10.3412C22.0849 10.1747 21.9798 10.0289 21.84 9.92214ZM13.3783 15.8809C11.8835 15.8704 10.4285 15.398 9.21252 14.5286C7.99653 13.6592 7.079 12.4351 6.58557 11.024C6.09214 9.61299 6.04692 8.0839 6.45611 6.64615C6.8653 5.20839 7.7089 3.93227 8.87139 2.99249V3.23298C8.87375 5.62761 9.82606 7.92349 11.5193 9.61675C13.2126 11.31 15.5085 12.2623 17.9031 12.2647C18.5318 12.267 19.159 12.2013 19.7736 12.0687C19.1589 13.2316 18.2384 14.2045 17.1114 14.8826C15.9844 15.5607 14.6936 15.9182 13.3783 15.9166V15.8809Z" fill="black"/>
</g>
<defs>
<filter id="filter0_d_1_24" x="0.363037" y="0.38916" width="25.8271" height="25.3249" filterUnits="userSpaceOnUse" color-interpolation-filters="sRGB">
<feFlood flood-opacity="0" result="BackgroundImageFix"/>
<feColorMatrix in="SourceAlpha" type="matrix" values="0 0 0 0 0 0 0 0 0 0 0 0 0 0 0 0 0 0 127 0" result="hardAlpha"/>
<feOffset dy="4"/>
<feGaussianBlur stdDeviation="2"/>
<feComposite in2="hardAlpha" operator="out"/>
<feColorMatrix type="matrix" values="0 0 0 0 0 0 0 0 0 0 0 0 0 0 0 0 0 0 0.25 0"/>
<feBlend mode="normal" in2="BackgroundImageFix" result="effect1_dropShadow_1_24"/>
<feBlend mode="normal" in="SourceGraphic" in2="effect1_dropShadow_1_24" result="shape"/>
</filter>
</defs>
</svg>
