<svg width="34" height="40" viewBox="0 0 26 26" fill="none" xmlns="http://www.w3.org/2000/svg">
<g filter="url(#filter0_d_1_3)">
<path d="M9.3415 7.97478C9.16625 7.97478 8.99493 8.02675 8.84922 8.12412C8.7035 8.22148 8.58993 8.35987 8.52286 8.52178C8.45579 8.68369 8.43825 8.86185 8.47244 9.03374C8.50663 9.20562 8.59102 9.36351 8.71494 9.48743C8.83886 9.61135 8.99675 9.69574 9.16863 9.72993C9.34052 9.76412 9.51868 9.74657 9.68059 9.67951C9.8425 9.61244 9.98089 9.49887 10.0783 9.35316C10.1756 9.20744 10.2276 9.03612 10.2276 8.86087C10.2276 8.62587 10.1342 8.40049 9.96806 8.23431C9.80188 8.06814 9.5765 7.97478 9.3415 7.97478ZM12.8858 7.97478C12.7106 7.97478 12.5393 8.02675 12.3936 8.12412C12.2478 8.22148 12.1343 8.35987 12.0672 8.52178C12.0001 8.68369 11.9826 8.86185 12.0168 9.03374C12.051 9.20562 12.1354 9.36351 12.2593 9.48743C12.3832 9.61135 12.5411 9.69574 12.713 9.72993C12.8849 9.76412 13.063 9.74657 13.2249 9.67951C13.3868 9.61244 13.5252 9.49887 13.6226 9.35316C13.72 9.20744 13.7719 9.03612 13.7719 8.86087C13.7719 8.62587 13.6786 8.40049 13.5124 8.23431C13.3462 8.06814 13.1209 7.97478 12.8858 7.97478ZM16.4302 7.97478C16.2549 7.97478 16.0836 8.02675 15.9379 8.12412C15.7922 8.22148 15.6786 8.35987 15.6116 8.52178C15.5445 8.68369 15.5269 8.86185 15.5611 9.03374C15.5953 9.20562 15.6797 9.36351 15.8036 9.48743C15.9276 9.61135 16.0854 9.69574 16.2573 9.72993C16.4292 9.76412 16.6074 9.74657 16.7693 9.67951C16.9312 9.61244 17.0696 9.49887 17.167 9.35316C17.2643 9.20744 17.3163 9.03612 17.3163 8.86087C17.3163 8.62587 17.2229 8.40049 17.0568 8.23431C16.8906 8.06814 16.6652 7.97478 16.4302 7.97478ZM12.8858 0C11.7222 0 10.57 0.229193 9.49494 0.674494C8.41989 1.11979 7.44307 1.77248 6.62026 2.59529C4.95853 4.25702 4.02498 6.51082 4.02498 8.86087C4.01723 10.907 4.72569 12.8913 6.02753 14.4698L4.25536 16.242C4.13241 16.3666 4.04912 16.5248 4.016 16.6967C3.98288 16.8686 4.00142 17.0464 4.06928 17.2078C4.14288 17.3672 4.26218 17.5012 4.41206 17.5927C4.56194 17.6842 4.73562 17.7291 4.91106 17.7217H12.8858C15.2359 17.7217 17.4897 16.7882 19.1514 15.1265C20.8132 13.4647 21.7467 11.2109 21.7467 8.86087C21.7467 6.51082 20.8132 4.25702 19.1514 2.59529C17.4897 0.933553 15.2359 0 12.8858 0ZM12.8858 15.9496H7.04653L7.87059 15.1255C7.95432 15.0434 8.02093 14.9456 8.06656 14.8376C8.11219 14.7296 8.13593 14.6136 8.13642 14.4964C8.13309 14.2627 8.03755 14.0397 7.87059 13.8761C6.71034 12.7172 5.98781 11.1918 5.82612 9.55981C5.66442 7.92787 6.07356 6.29034 6.98382 4.92622C7.89409 3.5621 9.24916 2.55579 10.8182 2.07874C12.3872 1.60168 14.0731 1.68339 15.5886 2.30995C17.1041 2.93651 18.3555 4.06916 19.1296 5.51491C19.9037 6.96066 20.1525 8.63008 19.8338 10.2387C19.515 11.8474 18.6483 13.2958 17.3814 14.3371C16.1145 15.3784 14.5258 15.9483 12.8858 15.9496Z" fill="#4896DA"/>
</g>
<defs>
<filter id="filter0_d_1_3" x="0" y="0" width="25.7467" height="25.7225" filterUnits="userSpaceOnUse" color-interpolation-filters="sRGB">
<feFlood flood-opacity="0" result="BackgroundImageFix"/>
<feColorMatrix in="SourceAlpha" type="matrix" values="0 0 0 0 0 0 0 0 0 0 0 0 0 0 0 0 0 0 127 0" result="hardAlpha"/>
<feOffset dy="4"/>
<feGaussianBlur stdDeviation="2"/>
<feComposite in2="hardAlpha" operator="out"/>
<feColorMatrix type="matrix" values="0 0 0 0 0 0 0 0 0 0 0 0 0 0 0 0 0 0 0.25 0"/>
<feBlend mode="normal" in2="BackgroundImageFix" result="effect1_dropShadow_1_3"/>
<feBlend mode="normal" in="SourceGraphic" in2="effect1_dropShadow_1_3" result="shape"/>
</filter>
</defs>
</svg>
