<svg width="19" height="20" viewBox="0 0 19 20" fill="none" xmlns="http://www.w3.org/2000/svg">
<g id="paperclip" clip-path="url(#clip0_1079_5453)">
<path id="Vector" d="M16.9727 10.0497L9.69725 17.3251C8.80596 18.2164 7.5971 18.7171 6.33663 18.7171C5.07615 18.7171 3.86729 18.2164 2.976 17.3251C2.08471 16.4338 1.58398 15.2249 1.58398 13.9644C1.58398 12.704 2.08471 11.4951 2.976 10.6038L10.2514 3.3284C10.8456 2.73421 11.6515 2.40039 12.4918 2.40039C13.3322 2.40039 14.1381 2.73421 14.7323 3.3284C15.3264 3.9226 15.6603 4.7285 15.6603 5.56882C15.6603 6.40914 15.3264 7.21504 14.7323 7.80924L7.44892 15.0847C7.15182 15.3817 6.74887 15.5487 6.32871 15.5487C5.90855 15.5487 5.5056 15.3817 5.2085 15.0847C4.9114 14.7876 4.7445 14.3846 4.7445 13.9644C4.7445 13.5443 4.9114 13.1413 5.2085 12.8442L11.9298 6.1309" stroke="#B5B5B5" stroke-width="1.5" stroke-linecap="round" stroke-linejoin="round"/>
</g>
<defs>
<clipPath id="clip0_1079_5453">
<rect width="19" height="19" fill="white" transform="translate(0 0.5)"/>
</clipPath>
</defs>
</svg>
