<svg width="14" height="14" viewBox="0 0 14 14" fill="none" xmlns="http://www.w3.org/2000/svg">
<path d="M11.4015 10.4715C11.5248 10.5948 11.5941 10.762 11.5941 10.9364C11.5941 11.1107 11.5248 11.2779 11.4015 11.4012C11.2782 11.5245 11.111 11.5938 10.9367 11.5938C10.7623 11.5938 10.5951 11.5245 10.4718 11.4012L6.99973 7.92801L3.52653 11.4001C3.40324 11.5234 3.23604 11.5927 3.06169 11.5927C2.88734 11.5927 2.72013 11.5234 2.59684 11.4001C2.47356 11.2768 2.4043 11.1096 2.4043 10.9353C2.4043 10.7609 2.47356 10.5937 2.59684 10.4704L6.07004 6.99833L2.59794 3.52512C2.47465 3.40184 2.40539 3.23463 2.40539 3.06028C2.40539 2.88593 2.47465 2.71872 2.59794 2.59544C2.72122 2.47215 2.88843 2.40289 3.06278 2.40289C3.23713 2.40289 3.40434 2.47215 3.52762 2.59544L6.99973 6.06864L10.4729 2.59489C10.5962 2.4716 10.7634 2.40234 10.9378 2.40234C11.1121 2.40234 11.2793 2.4716 11.4026 2.59489C11.5259 2.71817 11.5952 2.88538 11.5952 3.05973C11.5952 3.23408 11.5259 3.40129 11.4026 3.52458L7.92942 6.99833L11.4015 10.4715Z" fill="#B4B4B4"/>
</svg>
