<svg width="14" height="15" viewBox="0 0 14 15" fill="none" xmlns="http://www.w3.org/2000/svg">
<g id="ph:x-bold">
<path id="Vector" d="M11.4015 10.973C11.5248 11.0963 11.5941 11.2635 11.5941 11.4378C11.5941 11.6122 11.5248 11.7794 11.4015 11.9027C11.2782 12.026 11.111 12.0952 10.9367 12.0952C10.7623 12.0952 10.5951 12.026 10.4718 11.9027L6.99973 8.42948L3.52653 11.9016C3.40324 12.0249 3.23604 12.0941 3.06169 12.0941C2.88734 12.0941 2.72013 12.0249 2.59684 11.9016C2.47356 11.7783 2.4043 11.6111 2.4043 11.4367C2.4043 11.2624 2.47356 11.0952 2.59684 10.9719L6.07004 7.49979L2.59794 4.02659C2.47465 3.9033 2.40539 3.73609 2.40539 3.56174C2.40539 3.38739 2.47465 3.22018 2.59794 3.0969C2.72122 2.97362 2.88843 2.90436 3.06278 2.90436C3.23713 2.90436 3.40434 2.97362 3.52762 3.0969L6.99973 6.5701L10.4729 3.09635C10.5962 2.97307 10.7634 2.90381 10.9378 2.90381C11.1121 2.90381 11.2793 2.97307 11.4026 3.09635C11.5259 3.21964 11.5952 3.38685 11.5952 3.5612C11.5952 3.73555 11.5259 3.90276 11.4026 4.02604L7.92942 7.49979L11.4015 10.973Z" fill="#F8F8F8"/>
</g>
</svg>
