<svg width="20" height="19" viewBox="0 0 20 19" fill="none" xmlns="http://www.w3.org/2000/svg">
<path d="M16.6904 0.301018L2.49457 2.987C1.93504 3.09392 1.42211 3.37082 1.0257 3.77992C0.629293 4.18903 0.368704 4.71044 0.279464 5.27306C0.190224 5.83568 0.276675 6.41214 0.527031 6.92383C0.777386 7.43552 1.17946 7.85755 1.67844 8.13237L6.44336 10.7346C6.55594 10.7995 6.65447 10.8862 6.73318 10.9896C6.81189 11.093 6.86922 11.211 6.90181 11.3368L8.14139 16.6226C8.24741 17.0717 8.46399 17.4871 8.77142 17.8312C9.07886 18.1753 9.46742 18.4372 9.90178 18.5929C10.3361 18.7486 10.8025 18.7934 11.2586 18.723C11.7146 18.6527 12.1458 18.4695 12.5131 18.1901C12.8544 17.9248 13.132 17.5867 13.3257 17.2003L19.6944 4.23206C19.9194 3.77095 20.0119 3.25637 19.9616 2.74574C19.9112 2.23512 19.72 1.74852 19.4092 1.34025C19.0984 0.931976 18.6803 0.618083 18.2015 0.433592C17.7227 0.249101 17.2021 0.201266 16.6977 0.295428L16.6904 0.301018ZM18.0326 3.42057L11.6639 16.3888C11.5783 16.5564 11.4434 16.6938 11.2774 16.7826C11.1114 16.8714 10.9223 16.9073 10.7353 16.8855C10.5483 16.8638 10.3725 16.7854 10.2313 16.6608C10.0902 16.5363 9.9905 16.3716 9.94562 16.1888L8.6987 10.9086C8.68133 10.8386 8.65988 10.7697 8.63446 10.7023L13.6948 6.85024C13.8896 6.70196 14.0175 6.48238 14.0504 6.2398C14.0833 5.99722 14.0184 5.7515 13.8702 5.55672C13.7219 5.36193 13.5023 5.23402 13.2597 5.20114C13.0171 5.16825 12.7714 5.23307 12.5766 5.38135L7.5163 9.2334C7.45805 9.19093 7.39736 9.15192 7.33454 9.11655L2.57697 6.50877C2.41271 6.41684 2.28048 6.27689 2.19802 6.10768C2.11555 5.93847 2.0868 5.74809 2.1156 5.56207C2.1444 5.37605 2.22939 5.20329 2.35916 5.06694C2.48894 4.93059 2.6573 4.83718 2.84167 4.79923L17.0375 2.11326C17.2047 2.08331 17.3769 2.1001 17.5352 2.16176C17.6935 2.22343 17.8317 2.32758 17.9346 2.46275C18.0375 2.59793 18.1011 2.75887 18.1184 2.92787C18.1357 3.09687 18.106 3.26736 18.0326 3.42057Z" fill="black"/>
</svg>
