<svg width="24" height="23" viewBox="0 0 24 23" fill="none" xmlns="http://www.w3.org/2000/svg">
<path d="M3.70044 11.401C3.70044 11.0986 3.58032 10.8086 3.36651 10.5948C3.1527 10.381 2.86272 10.2609 2.56034 10.2609H1.42025C1.11788 10.2609 0.827887 10.381 0.614078 10.5948C0.400268 10.8086 0.280151 11.0986 0.280151 11.401C0.280151 11.7033 0.400268 11.9933 0.614078 12.2071C0.827887 12.4209 1.11788 12.5411 1.42025 12.5411H2.56034C2.86272 12.5411 3.1527 12.4209 3.36651 12.2071C3.58032 11.9933 3.70044 11.7033 3.70044 11.401ZM4.4301 17.1014L3.62063 17.9109C3.40829 18.1245 3.2891 18.4135 3.2891 18.7147C3.2891 19.0159 3.40829 19.3048 3.62063 19.5185C3.83425 19.7308 4.12321 19.85 4.4244 19.85C4.7256 19.85 5.01456 19.7308 5.22817 19.5185L6.03764 18.709C6.22442 18.4909 6.32202 18.2103 6.31093 17.9234C6.29985 17.6365 6.1809 17.3643 5.97786 17.1612C5.77481 16.9582 5.50263 16.8392 5.21569 16.8282C4.92876 16.8171 4.64821 16.9147 4.4301 17.1014ZM11.6811 3.42029C11.9835 3.42029 12.2735 3.30017 12.4873 3.08636C12.7011 2.87255 12.8212 2.58257 12.8212 2.28019V1.1401C12.8212 0.837724 12.7011 0.547736 12.4873 0.333926C12.2735 0.120117 11.9835 0 11.6811 0C11.3787 0 11.0888 0.120117 10.8749 0.333926C10.6611 0.547736 10.541 0.837724 10.541 1.1401V2.28019C10.541 2.58257 10.6611 2.87255 10.8749 3.08636C11.0888 3.30017 11.3787 3.42029 11.6811 3.42029ZM18.1341 6.08812C18.4332 6.08686 18.7198 5.96811 18.9321 5.75749L19.7416 4.94802C19.8609 4.84581 19.9579 4.72004 20.0263 4.57859C20.0947 4.43715 20.1332 4.28308 20.1393 4.12607C20.1453 3.96906 20.1189 3.81249 20.0616 3.66618C20.0042 3.51988 19.9173 3.387 19.8062 3.2759C19.6951 3.16479 19.5622 3.07785 19.4159 3.02053C19.2696 2.96321 19.113 2.93675 18.956 2.94282C18.799 2.94888 18.6449 2.98734 18.5035 3.05577C18.362 3.1242 18.2363 3.22114 18.1341 3.34048L17.3816 4.14995C17.1693 4.36356 17.0501 4.65252 17.0501 4.95372C17.0501 5.25492 17.1693 5.54388 17.3816 5.75749C17.5826 5.95742 17.8509 6.07529 18.1341 6.08812ZM4.4529 5.75749C4.66526 5.96811 4.95188 6.08686 5.25097 6.08812C5.40102 6.08898 5.54976 6.06022 5.68866 6.00349C5.82757 5.94675 5.95391 5.86315 6.06044 5.75749C6.27279 5.54388 6.39197 5.25492 6.39197 4.95372C6.39197 4.65252 6.27279 4.36356 6.06044 4.14995L5.25097 3.34048C5.14542 3.23343 5.01982 3.14822 4.88133 3.08971C4.74285 3.03121 4.5942 3.00055 4.44386 2.99949C4.29353 2.99843 4.14446 3.02699 4.00517 3.08354C3.86588 3.1401 3.73908 3.22353 3.63204 3.32908C3.52499 3.43463 3.43977 3.56024 3.38127 3.69872C3.32276 3.83721 3.2921 3.98586 3.29104 4.13619C3.2889 4.4398 3.40746 4.73182 3.62063 4.94802L4.4529 5.75749ZM21.942 10.2609H20.8019C20.4995 10.2609 20.2095 10.381 19.9957 10.5948C19.7819 10.8086 19.6618 11.0986 19.6618 11.401C19.6618 11.7033 19.7819 11.9933 19.9957 12.2071C20.2095 12.4209 20.4995 12.5411 20.8019 12.5411H21.942C22.2444 12.5411 22.5343 12.4209 22.7482 12.2071C22.962 11.9933 23.0821 11.7033 23.0821 11.401C23.0821 11.0986 22.962 10.8086 22.7482 10.5948C22.5343 10.381 22.2444 10.2609 21.942 10.2609ZM18.9321 17.1014C18.7155 16.981 18.4656 16.9344 18.2201 16.9687C17.9746 17.003 17.747 17.1164 17.5718 17.2916C17.3965 17.4669 17.2831 17.6945 17.2488 17.9399C17.2145 18.1854 17.2611 18.4354 17.3816 18.652L18.1911 19.4614C18.4047 19.6738 18.6936 19.793 18.9948 19.793C19.296 19.793 19.585 19.6738 19.7986 19.4614C20.011 19.2478 20.1301 18.9589 20.1301 18.6577C20.1301 18.3565 20.011 18.0675 19.7986 17.8539L18.9321 17.1014ZM11.6811 5.13043C10.4409 5.13043 9.22858 5.49819 8.1974 6.18721C7.16621 6.87622 6.3625 7.85555 5.8879 9.00134C5.4133 10.1471 5.28912 11.4079 5.53107 12.6243C5.77302 13.8407 6.37023 14.958 7.24718 15.8349C8.12413 16.7119 9.24143 17.3091 10.4578 17.551C11.6742 17.793 12.935 17.6688 14.0807 17.1942C15.2265 16.7196 16.2059 15.9159 16.8949 14.8847C17.5839 13.8535 17.9516 12.6412 17.9516 11.401C17.9486 9.73884 17.287 8.14566 16.1117 6.97036C14.9364 5.79506 13.3432 5.13345 11.6811 5.13043ZM11.6811 15.3913C10.8919 15.3913 10.1204 15.1573 9.4642 14.7188C8.808 14.2803 8.29654 13.6571 7.99453 12.928C7.69251 12.1989 7.61348 11.3965 7.76745 10.6225C7.92142 9.84844 8.30146 9.13743 8.85952 8.57937C9.41758 8.02131 10.1286 7.64127 10.9026 7.4873C11.6767 7.33333 12.479 7.41235 13.2082 7.71437C13.9373 8.01639 14.5605 8.52784 14.999 9.18405C15.4374 9.84026 15.6715 10.6118 15.6715 11.401C15.6715 12.4593 15.251 13.4742 14.5027 14.2226C13.7544 14.9709 12.7394 15.3913 11.6811 15.3913ZM11.6811 19.3816C11.3787 19.3816 11.0888 19.5018 10.8749 19.7156C10.6611 19.9294 10.541 20.2194 10.541 20.5217V21.6618C10.541 21.9642 10.6611 22.2542 10.8749 22.468C11.0888 22.6818 11.3787 22.8019 11.6811 22.8019C11.9835 22.8019 12.2735 22.6818 12.4873 22.468C12.7011 22.2542 12.8212 21.9642 12.8212 21.6618V20.5217C12.8212 20.2194 12.7011 19.9294 12.4873 19.7156C12.2735 19.5018 11.9835 19.3816 11.6811 19.3816Z" fill="#010101"/>
</svg>
