<svg width="35" height="44" viewBox="0 0 35 44" fill="none" xmlns="http://www.w3.org/2000/svg">
<g id="Uploading icon">
<g id="Subtract">
<mask id="path-1-inside-1_1396_12397" fill="white">
<path fill-rule="evenodd" clip-rule="evenodd" d="M34.2222 11.8236L24.0998 0H5C2.23858 0 0 2.23858 0 5V39C0 41.7614 2.23858 44 5 44H29.2222C31.9836 44 34.2222 41.7614 34.2222 39V11.8236Z"/>
</mask>
<path fill-rule="evenodd" clip-rule="evenodd" d="M34.2222 11.8236L24.0998 0H5C2.23858 0 0 2.23858 0 5V39C0 41.7614 2.23858 44 5 44H29.2222C31.9836 44 34.2222 41.7614 34.2222 39V11.8236Z" fill="#D9D9D9"/>
<path d="M34.2222 11.8236H35.2222V11.454L34.9819 11.1732L34.2222 11.8236ZM24.0998 0L24.8595 -0.650344L24.5601 -1H24.0998V0ZM34.9819 11.1732L24.8595 -0.650344L23.3402 0.650344L33.4626 12.4739L34.9819 11.1732ZM5 1H24.0998V-1H5V1ZM1 5C1 2.79086 2.79086 1 5 1V-1C1.68629 -1 -1 1.68629 -1 5H1ZM1 39V5H-1V39H1ZM5 43C2.79086 43 1 41.2091 1 39H-1C-1 42.3137 1.6863 45 5 45V43ZM29.2222 43H5V45H29.2222V43ZM33.2222 39C33.2222 41.2091 31.4314 43 29.2222 43V45C32.5359 45 35.2222 42.3137 35.2222 39H33.2222ZM33.2222 11.8236V39H35.2222V11.8236H33.2222Z" fill="#616061" mask="url(#path-1-inside-1_1396_12397)"/>
</g>
<path id="Polygon 4" d="M24.964 9.92274C23.2864 8.25753 22.6936 5.35457 24.11 0.987548C24.1472 1.03099 24.186 1.07615 24.2261 1.12291C24.6419 1.60726 25.2057 2.26314 25.7977 2.94909C26.9771 4.31574 28.281 5.81679 28.7388 6.30605C29.1272 6.7212 30.3968 8.20009 31.5817 9.59033C32.1713 10.2822 32.7361 10.9474 33.1536 11.4398C33.1987 11.493 33.2421 11.5442 33.2836 11.5932C29.5852 12.1946 26.6462 11.5925 24.964 9.92274Z" fill="#B5B5B5" stroke="#616061"/>
</g>
</svg>
