<svg width="13" height="14" viewBox="0 0 13 14" fill="none" xmlns="http://www.w3.org/2000/svg">
<path id="Vector" d="M12.25 6.68752C12.2522 7.51244 12.0594 8.3262 11.6875 9.06252C11.2465 9.94486 10.5686 10.687 9.72966 11.2058C8.89072 11.7246 7.9239 11.9996 6.9375 12C6.11258 12.0022 5.29882 11.8094 4.5625 11.4375L1 12.625L2.1875 9.06252C1.81558 8.3262 1.62285 7.51244 1.625 6.68752C1.62538 5.70112 1.90038 4.7343 2.4192 3.89536C2.93802 3.05642 3.68016 2.3785 4.5625 1.93752C5.29882 1.5656 6.11258 1.37287 6.9375 1.37502H7.25C8.55272 1.44689 9.78315 1.99674 10.7057 2.9193C11.6283 3.84187 12.1781 5.0723 12.25 6.37502V6.68752Z" stroke="#F8F8F8" stroke-linecap="round" stroke-linejoin="round"/>
</svg>
